Coordinates
version=1
nRows=21
nColumns=19
inDegrees=yes

Units are S.I. units (second, meters, Newtons, ...)
If the header above contains a line with 'inDegrees', this indicates whether rotational values are in degrees (yes) or radians (no).

endheader
time	pelvis_tilt	pelvis_list	pelvis_rotation	pelvis_tx	pelvis_ty	pelvis_tz	hip_flexion_r	hip_adduction_r	hip_rotation_r	knee_angle_r	knee_angle_r_beta	ankle_angle_r	hip_flexion_l	hip_adduction_l	hip_rotation_l	knee_angle_l	knee_angle_l_beta	ankle_angle_l
     16.56000000	     -7.60803453	      6.95601443	      7.94299096	      2.37587203	      0.95793933	      0.97237987	    -12.43895982	     -5.04565048	    -11.15417322	     56.33745333	      0.98327405	    -14.25149758	     29.44225164	     12.20278977	     -5.87035126	     18.32256051	      0.31978901	     -4.31806638
     16.56666667	     -7.50359995	      7.09661805	      8.59837360	      2.37502734	      0.95342792	      0.97159003	    -11.02753509	     -5.34229786	    -11.20878411	     60.58679560	      1.05743907	    -13.69052033	     29.52089329	     12.56932253	     -6.04024466	     20.64468639	      0.36031775	     -2.34534561
     16.57333333	     -7.24435741	      7.27682880	      9.26164156	      2.37409813	      0.94882659	      0.97088318	     -9.73536597	     -5.69505780	    -11.33046292	     64.73954170	      1.12991816	    -12.99038882	     29.42270366	     12.94449561	     -5.98569021	     23.33187195	      0.40721799	      0.19762642
     16.58000000	     -6.98078884	      7.33948071	      9.84929154	      2.37295236	      0.94400244	      0.97032566	     -8.30565612	     -5.96686525	    -11.35014783	     68.83909120	      1.20146880	    -12.13078248	     29.34173124	     13.17125754	     -5.70251821	     26.32685290	      0.45949026	      3.19661631
     16.58666667	     -6.75819818	      7.35049921	     10.34490292	      2.37164277	      0.93901844	      0.96985556	     -6.70006845	     -6.26220914	    -11.28375859	     72.87956997	      1.27198845	    -11.11676886	     29.25849736	     13.34616124	     -5.20570902	     29.43203622	      0.51368594	      6.46477581
     16.59333333	     -6.50051305	      7.26903400	     10.72231605	      2.37012721	      0.93406311	      0.96946806	     -4.99193097	     -6.51768262	    -11.10221536	     76.80426030	      1.34048722	     -9.98012673	     29.07484112	     13.42040499	     -4.51822010	     32.54320449	      0.56798607	      9.91254205
     16.60000000	     -6.23122248	      7.14304214	     10.95310910	      2.36844376	      0.92925027	      0.96918966	     -3.14869842	     -6.79648648	    -10.78748907	     80.61335505	      1.40696847	     -8.74974495	     28.77028265	     13.43688874	     -3.72381856	     35.52524328	      0.62003246	     13.36257414
     16.60666667	     -5.96784081	      6.98210748	     11.03973555	      2.36661099	      0.92465407	      0.96898652	     -1.16012420	     -7.10227859	    -10.33852836	     84.27092638	      1.47080513	     -7.46185825	     28.33130081	     13.38914985	     -2.91194494	     38.26119293	      0.66778379	     16.69016298
     16.61333333	     -5.67793321	      6.80195777	     10.99914160	      2.36462249	      0.92044697	      0.96882879	      0.92449587	     -7.42276757	     -9.76226284	     87.72790920	      1.53114086	     -6.15311641	     27.70627982	     13.27386076	     -2.14965949	     40.69622167	      0.71028306	     19.78893271
     16.62000000	     -5.40938501	      6.62337579	     10.83713863	      2.36252754	      0.91667212	      0.96876502	      3.15888294	     -7.76761132	     -9.05135744	     90.96690271	      1.58767196	     -4.86545997	     26.92114761	     13.09594240	     -1.48736525	     42.75513536	      0.74621788	     22.58046607
     16.62666667	     -4.87038737	      6.56866298	     10.60699703	      2.36046602	      0.91379034	      0.96873689	      5.12105030	     -8.20798645	     -8.30750534	     93.86938840	      1.63832989	     -3.60349232	     25.57502159	     12.95430285	     -0.88242601	     44.32933677	      0.77369288	     25.09364338
     16.63333333	     -4.93355323	      6.29608501	     10.23412771	      2.35815863	      0.91068420	      0.96885696	      7.99939100	     -8.46344881	     -7.29986242	     96.63793156	      1.68665009	     -2.46387457	     24.82026358	     12.55541879	     -0.53478155	     45.63115667	      0.79641393	     27.13202080
     16.64000000	     -4.81263241	      6.10796269	      9.89249583	      2.35594204	      0.90840933	      0.96894956	     10.65366302	     -8.74661908	     -6.35380808	     99.00996000	      1.72804979	     -1.37545419	     23.61040687	     12.19130858	     -0.19394062	     46.47099489	      0.81107187	     28.84654836
     16.64666667	     -4.52146385	      5.99575035	      9.54808055	      2.35385899	      0.90693597	      0.96900277	     13.10354593	     -9.04868453	     -5.43049287	    100.98957939	      1.76260067	     -0.39410728	     21.97493713	     11.83558375	      0.07932848	     46.86503330	      0.81794914	     30.31803332
     16.65333333	     -4.63012494	      5.79730643	      9.12810374	      2.35182541	      0.90560385	      0.96916411	     16.08706661	     -9.20800014	     -4.36958829	    102.67739227	      1.79205856	      0.49086830	     20.62125955	     11.37962155	      0.19439578	     46.90353732	      0.81862116	     31.30150309
     16.66000000	     -4.61235279	      5.61643155	      8.81638633	      2.35009184	      0.90499189	      0.96914181	     18.80562083	     -9.36364311	     -3.50414243	    103.90977358	      1.81356767	      1.32385750	     18.91028430	     10.94349583	      0.38225486	     46.56819657	      0.81276836	     32.15059649
     16.66666667	     -4.70481524	      5.41490273	      8.53213362	      2.34844610	      0.90478565	      0.96907707	     21.60803370	     -9.41811385	     -2.65534543	    104.78961279	      1.82892377	      2.04940460	     17.17721904	     10.49832106	      0.55791304	     45.94806526	      0.80194502	     32.61769467
     16.67333333	     -4.78974070	      5.07168908	      8.41714260	      2.34711752	      0.90516888	      0.96871789	     24.23810785	     -9.35046969	     -2.11655424	    105.20987787	      1.83625877	      2.73159923	     15.28595197	      9.97048719	      0.97450789	     45.07182580	      0.78665176	     32.78711796
     16.68000000	     -5.09908716	      4.92448866	      8.04390198	      2.34614409	      0.90577460	      0.96861287	     27.08453464	     -9.35194829	     -1.26646299	    105.33906098	      1.83851345	      3.35438701	     13.45505103	      9.57873811	      0.97062249	     43.81612419	      0.76473563	     32.72675730
     16.68666667	     -5.43733452	      4.60356877	      7.82821860	      2.34545868	      0.90689611	      0.96825512	     29.76895677	     -9.18256028	     -0.73115006	    105.03472259	      1.83320174	      3.93390074	     11.57234118	      9.07153558	      1.18657915	     42.39123700	      0.73986666	     32.28059015
     16.69333333	     -5.83477972	      4.16533086	      7.68970274	      2.34511566	      0.90844911	      0.96773513	     32.31532837	     -8.91474895	     -0.44001151	    104.32734224	      1.82085562	      4.49151588	      9.68409138	      8.48741068	      1.53845902	     40.81107149	      0.71228757	     31.57915125
